<svg width="23" height="24" viewBox="0 0 23 24" fill="none" xmlns="http://www.w3.org/2000/svg">
<g clip-path="url(#clip0_16_0)">
<path d="M11.5 0.600006C7.00831 0.600006 3.35419 4.25413 3.35419 8.74582C3.35419 13.0899 10.8014 22.9905 11.1176 23.4103C11.2087 23.5301 11.3496 23.6 11.5 23.6C11.6504 23.6 11.7913 23.5301 11.8824 23.4103C12.1986 22.9905 19.6458 13.0899 19.6458 8.74582C19.6458 4.25413 15.9917 0.600006 11.5 0.600006ZM11.5 22.3149C9.96188 20.2104 4.31251 12.2418 4.31251 8.74582C4.31251 4.78214 7.53632 1.55832 11.5 1.55832C15.4637 1.55832 18.6875 4.78214 18.6875 8.74582C18.6875 12.2399 13.0381 20.2094 11.5 22.3149Z" fill="#FEE600"/>
<path d="M11.5 4.43332C9.12237 4.43332 7.1875 6.36819 7.1875 8.74582C7.1875 11.1234 9.12237 13.0583 11.5 13.0583C13.8776 13.0583 15.8125 11.1234 15.8125 8.74582C15.8125 6.36819 13.8776 4.43332 11.5 4.43332ZM11.5 12.1C9.65043 12.1 8.14582 10.5954 8.14582 8.74582C8.14582 6.89625 9.65039 5.39164 11.5 5.39164C13.3496 5.39164 14.8542 6.89621 14.8542 8.74582C14.8542 10.5954 13.3496 12.1 11.5 12.1Z" fill="#FEE600"/>
</g>
<defs>
<clipPath id="clip0_16_0">
<rect width="23" height="23" fill="white" transform="translate(0 0.600006)"/>
</clipPath>
</defs>
</svg>
