<svg width="500" height="157" viewBox="0 0 500 157" fill="none" xmlns="http://www.w3.org/2000/svg">
<g clip-path="url(#clip0_9_71)">
<path d="M250.112 0.055991C332.587 0.055991 415.062 0.055991 497.536 0C499.496 0 500 0.335946 500 2.40761C499.944 52.8555 499.944 103.303 500 153.751C500 155.711 499.664 156.215 497.592 156.215C332.531 156.159 167.525 156.159 2.46361 156.215C0.503919 156.215 0 155.879 0 153.807C0.055991 103.359 0.055991 52.9115 0 2.46361C0 0.503919 0.335946 0 2.40761 0C84.9944 0.055991 167.525 0.055991 250.112 0.055991ZM9.51848 69.4289C9.40649 89.8656 14.1097 102.744 21.9485 113.718C33.0907 129.227 48.2643 138.634 67.2452 141.713C70.3807 142.217 72.9563 140.817 73.4043 138.354C73.9082 135.61 72.1165 133.483 68.757 132.923C54.9272 130.683 43.1691 124.636 33.8186 114.166C18.4211 96.8085 14.3897 76.5398 21.9485 55.0392C29.6753 32.6428 46.4166 19.2609 70.1008 16.2374C93.3931 13.2139 112.15 22.0045 126.26 40.7615C130.795 46.8085 133.539 53.6954 135.554 60.9183C136.394 63.8858 138.354 65.0056 140.929 64.3337C143.729 63.6058 144.793 61.2542 143.785 57.5588C136.786 31.187 115.454 12.0381 88.9698 7.55879C72.5084 4.75924 56.7189 7.55879 42.4972 16.4054C21.1086 29.7312 10.3583 49.3281 9.51848 69.4289ZM38.2979 104.255C38.4099 106.383 38.5778 108.567 40.1456 110.246C44.4569 114.838 49.4401 118.645 55.4311 120.493C60.8623 122.228 67.1893 117.861 68.2531 112.262C69.9888 103.191 71.5565 94.1209 73.1803 85.0504C73.4602 83.3707 73.6282 81.6349 72.0045 80.4591C70.2128 79.1713 68.533 79.6753 66.7973 80.6831C59.2945 85.2184 51.7917 89.6417 44.3449 94.1769C40.7055 96.5286 38.1859 99.6081 38.2979 104.255ZM51.5118 31.299C49.3281 31.411 46.8085 32.0829 44.7368 34.1545C42.4972 36.3942 40.2576 38.5778 38.0739 40.8735C31.299 47.9843 33.6506 57.2788 43.0011 60.4143C51.0078 63.1019 59.0146 65.9574 67.0213 68.757C68.757 69.3729 70.3247 69.8768 71.8925 68.3091C73.5722 66.6853 73.1243 65.0616 72.3964 63.2139C69.0929 54.9832 65.9015 46.8085 62.71 38.5778C61.0302 34.2105 56.8869 31.299 51.5118 31.299ZM24.6361 74.916C24.804 78.3875 24.804 81.019 25.196 83.5946C26.4278 90.9295 34.1545 95.2968 40.8735 91.9933C49.1601 87.8499 57.2228 83.2587 65.4535 78.8914C66.9653 78.0515 68.4211 77.3236 68.2531 75.196C68.0851 73.0683 66.6293 72.1165 64.9496 71.5006C56.271 68.1971 47.5364 64.9496 38.8018 61.7021C35.6663 60.5263 32.6988 61.0862 29.9552 62.71C24.972 65.7895 23.9642 70.4367 24.6361 74.916ZM77.8835 22.3404C69.0929 22.0605 63.2699 28.8914 65.5655 36.1702C68.3091 44.9048 71.3886 53.5834 74.3001 62.318C74.916 64.1097 75.6439 65.6215 77.7156 65.9015C79.8432 66.1814 80.8511 64.6697 81.8029 63.1019C86.3942 55.3751 91.0974 47.7044 95.5767 39.9216C99.5521 33.0907 95.6887 24.804 87.9059 23.5162C84.3225 22.9003 80.6831 22.6204 77.8835 22.3404ZM125.532 54.1993C125.588 51.9597 124.916 49.944 123.74 48.1523C121.781 45.1288 119.597 42.2172 117.469 39.3057C112.934 33.2027 102.856 34.0426 99.2161 40.4255C94.5689 48.5442 89.8096 56.6069 85.0504 64.7256C84.2665 66.0694 84.1545 67.3572 85.1064 68.645C86.0582 69.8768 87.29 70.4927 88.9698 70.2128C98.0963 68.477 107.279 66.8533 116.405 65.1176C121.557 63.9978 125.42 59.4065 125.532 54.1993ZM183.819 111.646C183.203 110.582 182.699 109.798 182.307 108.959C178.499 100.28 174.692 91.6013 170.941 82.8667C169.093 78.5554 169.205 78.4994 164.67 78.4994C163.102 78.4994 161.478 78.4434 159.91 78.4994C159.127 78.5554 157.951 78.1075 157.839 79.2833C157.727 80.5151 158.959 80.2352 159.686 80.4591C163.942 81.467 164.278 81.7469 163.998 86.1142C163.662 91.9933 163.158 97.8164 162.71 103.639C162.43 107.279 162.206 110.862 161.87 114.502C161.59 117.021 160.582 118.981 157.671 119.261C156.943 119.317 155.935 119.093 155.935 120.157C155.935 121.445 157.055 121.109 157.839 121.165C161.646 121.221 165.454 121.221 169.317 121.165C170.045 121.165 171.221 121.557 171.221 120.213C171.221 119.149 170.157 119.429 169.485 119.317C165.677 118.645 165.006 118.029 165.118 114.222C165.342 106.383 165.733 98.6002 166.069 90.7615C166.125 89.3617 166.293 88.0179 166.405 86.6181C167.357 87.458 167.749 88.2979 168.085 89.1377C172.172 99.1041 176.26 109.127 180.347 119.093C180.683 119.933 180.739 120.997 182.027 120.997C183.147 120.997 183.203 119.989 183.539 119.261C187.234 111.03 190.761 102.744 194.569 94.5689C195.969 91.5453 197.032 88.3539 199.272 85.1624C199.272 95.0728 199.272 104.423 199.272 113.718C199.272 118.141 199.272 118.141 194.961 119.317C194.401 119.485 193.841 119.541 193.841 120.269C193.897 120.997 194.513 121.109 195.073 121.109C200 121.109 204.983 121.109 209.91 121.109C210.526 121.109 211.086 120.941 211.03 120.157C210.974 119.597 210.526 119.485 210.078 119.317C205.151 117.749 204.983 117.637 204.871 112.542C204.703 104.087 204.535 95.5767 204.479 87.1221C204.423 83.1467 204.311 81.019 209.462 80.3471C209.966 80.2912 210.694 80.1792 210.694 79.4513C210.694 78.5554 209.91 78.4994 209.295 78.4994C206.887 78.4994 204.423 78.6674 202.016 78.4435C200.112 78.2755 199.16 79.0594 198.432 80.6831C195.241 87.682 191.993 94.6809 188.634 101.624C187.122 104.927 185.946 108.343 183.819 111.646ZM302.688 110.694C301.68 110.526 301.176 109.686 300.616 109.015C293.505 100.56 286.114 92.3292 279.339 83.5946C276.204 79.5073 272.788 77.6596 267.805 78.4994C267.637 78.5554 267.413 78.4994 267.245 78.4994C266.461 78.6114 265.342 78.1635 265.286 79.4513C265.286 80.4031 266.349 80.2912 267.021 80.5151C270.997 81.5789 272.508 83.1467 272.508 86.7861C272.508 96.0246 272.844 105.207 272.172 114.446C271.948 117.301 270.773 118.981 267.861 119.317C267.189 119.373 266.125 119.317 266.237 120.381C266.349 121.445 267.357 121.165 268.029 121.165C271.948 121.165 275.868 121.165 279.787 121.165C280.515 121.165 281.691 121.557 281.691 120.269C281.691 119.261 280.627 119.429 279.955 119.317C276.372 118.701 275.532 117.861 275.42 114.166C275.252 105.991 275.196 97.7604 275.084 89.5857C275.084 89.1377 275.196 88.7458 275.308 88.2979C276.372 88.3539 276.708 89.0818 277.1 89.6417C285.498 99.888 293.953 110.19 302.352 120.493C303.024 121.277 303.695 122.228 304.871 121.892C306.271 121.501 305.767 120.269 305.767 119.317C305.823 108.231 305.935 97.1445 305.991 86.0582C305.991 83.0907 306.775 80.9071 310.19 80.5711C310.862 80.5151 311.87 80.3471 311.646 79.2833C311.478 78.4435 310.638 78.6674 310.022 78.6674C306.103 78.6674 302.184 78.6114 298.264 78.6674C297.424 78.6674 296.081 78.1075 295.913 79.3953C295.745 80.6831 297.2 80.4031 298.04 80.5711C302.128 81.411 302.856 82.1948 302.912 86.3382C303.024 93.785 303.08 101.232 303.08 108.679C303.135 109.295 303.359 110.078 302.688 110.694ZM216.461 100.168C216.125 112.206 225.364 121.892 237.346 122.172C250.336 122.452 259.574 113.382 259.854 100.112C260.134 87.794 251.344 78.2195 239.362 77.8835C226.148 77.4916 216.797 86.5621 216.461 100.168ZM472.9 121.109C477.548 121.109 482.251 121.109 486.898 121.109C487.794 121.109 488.858 121.333 489.194 120.045C489.922 117.357 490.594 114.67 491.321 111.926C491.489 111.254 491.377 110.862 490.706 110.638C490.034 110.414 489.698 110.75 489.418 111.31C488.97 112.15 488.466 112.934 488.074 113.774C486.338 117.469 483.651 119.317 479.451 118.813C477.436 118.589 475.364 118.813 473.292 118.757C469.989 118.645 469.149 117.973 469.093 114.558C468.981 110.47 469.093 106.327 468.981 102.24C468.981 100.84 469.373 100.168 470.885 100.28C472.956 100.392 474.972 100.336 477.044 100.28C479.899 100.28 481.915 101.344 482.475 104.367C482.587 104.927 482.475 105.767 483.483 105.711C484.714 105.655 484.322 104.703 484.378 104.031C484.434 100.84 484.434 97.7044 484.378 94.5129C484.378 93.785 484.882 92.6092 483.651 92.4412C482.363 92.2172 482.531 93.505 482.363 94.1769C481.803 96.8085 480.123 97.8723 477.604 97.8723C475.476 97.8723 473.292 97.7604 471.165 97.8723C469.373 97.9843 468.925 97.2564 468.981 95.6327C469.093 92.7212 468.981 89.8656 468.981 86.9541C469.093 80.1792 468.029 81.299 474.916 80.963C480.235 80.6831 484.658 81.299 485.946 87.514C486.114 88.1859 486.506 88.4658 487.122 88.3539C487.906 88.2419 487.794 87.626 487.794 87.0661C487.738 84.6585 487.626 82.2508 487.57 79.7872C487.57 78.7234 487.066 78.3315 486.002 78.3315C477.156 78.3875 468.253 78.3875 459.406 78.3875C458.903 78.3875 458.175 78.2195 458.063 79.0034C457.895 79.8992 458.623 80.0112 459.239 80.1792C463.27 81.467 463.494 81.7469 463.55 86.0582C463.606 95.2968 463.606 104.535 463.55 113.718C463.55 118.141 463.102 118.533 458.679 119.149C458.007 119.261 456.999 119.037 456.999 120.101C456.999 121.277 458.063 120.885 458.735 120.885C463.382 121.109 468.141 121.109 472.9 121.109ZM133.315 121.165C138.074 121.165 142.833 121.165 147.592 121.165C148.376 121.165 149.384 121.501 149.664 120.325C150.392 117.525 151.12 114.726 151.848 111.982C152.016 111.422 151.904 110.862 151.176 110.694C150.616 110.582 150.336 110.806 150.056 111.31C149.72 111.982 149.328 112.598 148.992 113.27C147.144 117.301 144.289 119.541 139.53 118.925C137.514 118.645 135.442 118.757 133.371 118.869C131.019 118.981 129.843 117.749 129.675 115.622C129.451 113.214 129.451 110.806 129.451 108.399C129.395 99.832 129.451 99.832 137.962 100.448C140.538 100.616 142.441 101.512 142.945 104.367C143.057 105.095 143.225 105.991 144.233 105.879C145.521 105.711 145.017 104.591 145.073 103.863C145.129 100.896 145.129 97.8723 145.073 94.9048C145.073 94.1209 145.689 92.8331 144.233 92.6652C143.057 92.5532 143.113 93.729 143.001 94.5129C142.497 97.0325 140.817 98.0403 138.41 98.0963C136.282 98.1523 134.099 98.0403 131.971 98.1523C130.179 98.2643 129.451 97.6484 129.507 95.8007C129.619 93.0011 129.563 90.2016 129.563 87.402C129.563 80.1232 129.171 81.579 135.666 81.243C140.817 81.019 145.241 81.411 146.529 87.57C146.529 87.682 146.585 87.738 146.641 87.8499C146.864 88.4658 147.256 88.7458 147.928 88.5778C148.488 88.4099 148.544 87.9059 148.488 87.458C148.376 84.9384 148.264 82.4188 148.152 79.8992C148.096 79.0034 147.592 78.6114 146.697 78.6114C137.85 78.6114 129.003 78.6674 120.157 78.6674C119.485 78.6674 118.757 78.6114 118.701 79.5633C118.645 80.2912 119.261 80.5151 119.821 80.5151C123.46 80.7391 124.132 83.1467 124.132 86.1702C124.132 95.6887 124.132 105.151 124.076 114.67C124.076 118.309 123.236 119.037 119.709 119.485C118.981 119.597 117.749 119.205 117.749 120.437C117.749 121.669 118.981 121.277 119.709 121.277C124.188 121.165 128.779 121.165 133.315 121.165ZM344.457 95.2408H344.513C344.513 98.4882 344.457 101.792 344.513 105.039C344.569 108.679 345.129 112.262 347.144 115.454C350.896 121.501 356.887 122.34 363.27 122.06C371.221 121.669 376.54 116.517 377.436 108.623C378.275 101.12 377.604 93.561 377.94 86.0022C378.108 82.3068 378.835 81.355 382.195 80.4591C382.867 80.2912 383.987 80.5151 383.819 79.3953C383.707 78.1635 382.531 78.6114 381.803 78.6114C377.996 78.5554 374.132 78.5554 370.325 78.6114C369.597 78.6114 368.365 78.1075 368.253 79.3393C368.141 80.6271 369.429 80.2352 370.157 80.4031C372.172 80.9071 374.356 81.243 374.636 83.8746C375.42 92.8891 376.092 101.904 374.076 110.806C373.404 113.718 371.781 116.069 368.981 117.413C361.702 120.829 350.896 118.645 350.112 105.767C349.72 98.8802 350.056 91.9933 350 85.1064C350 82.3628 351.232 80.7391 354.031 80.4031C354.703 80.3471 356.047 80.5711 355.823 79.2833C355.655 78.3315 354.591 78.6674 353.919 78.6674C349.552 78.6674 345.129 78.6674 340.761 78.6674C340.09 78.6674 339.082 78.2755 338.914 79.3393C338.69 80.6831 339.978 80.4591 340.65 80.5151C343.337 80.8511 344.569 82.2508 344.457 84.9944C344.345 88.3539 344.457 91.7693 344.457 95.2408ZM436.674 77.8275C434.546 77.7156 432.139 77.8835 429.731 78.3875C421.613 80.1792 415.566 84.7704 412.878 92.7212C410.078 101.064 411.366 109.015 417.693 115.51C424.076 122.06 432.251 122.508 440.817 121.892C446.025 121.501 449.328 119.429 449.888 113.942C449.944 113.326 450.336 112.71 450.56 112.094C450.784 111.422 450.896 110.806 450.056 110.47C449.328 110.19 449.104 110.638 448.768 111.198C448.488 111.702 448.096 112.094 447.872 112.598C442.889 123.068 427.828 120.885 423.012 114.278C418.141 107.615 417.413 100.224 419.149 92.4972C421.557 81.523 431.131 78.2195 440.482 80.5711C444.065 81.467 446.417 83.8746 447.592 87.402C447.872 88.1859 447.872 89.5857 449.216 89.1937C450.56 88.8018 449.72 87.626 449.664 86.7861C449.496 84.7704 449.216 82.6988 449.104 80.6831C449.048 79.3953 448.544 78.9474 447.312 78.7794C443.897 78.3315 440.482 77.7716 436.674 77.8275ZM95.1848 121.165C99.5521 121.165 103.919 121.221 108.343 121.165C109.351 121.165 110.47 121.277 110.862 119.933C111.646 117.189 112.486 114.39 113.27 111.646C113.382 111.198 113.494 110.694 112.99 110.414C112.43 110.134 111.87 110.19 111.478 110.694C111.142 111.254 110.806 111.814 110.582 112.43C108.567 116.741 105.711 119.709 100.448 118.813C99.3841 118.645 98.2083 118.757 97.0885 118.757C92.8891 118.701 92.3292 118.253 92.2732 114.166C92.2172 104.647 92.2172 95.1848 92.2732 85.6663C92.2732 81.6909 92.6092 81.355 96.4726 80.4031C97.1445 80.2352 98.1523 80.2912 97.9843 79.1713C97.8163 78.2755 96.9765 78.4994 96.3606 78.4994C91.7133 78.4434 87.0661 78.4435 82.3628 78.4435C81.7469 78.4435 80.9071 78.2755 80.8511 79.2273C80.7391 80.2912 81.6909 80.4031 82.4188 80.4031C85.5543 80.5711 86.5062 82.4188 86.5062 85.2184C86.5062 94.9048 86.5622 104.591 86.5062 114.278C86.5062 118.141 85.8903 118.701 82.0829 119.261C81.411 119.373 80.3471 119.093 80.2912 120.101C80.2352 121.389 81.411 121.053 82.1949 121.109C86.3942 121.165 90.8175 121.165 95.1848 121.165ZM325.42 78.5554C323.18 78.5554 320.941 78.4994 318.701 78.5554C318.029 78.5554 317.021 78.1635 316.909 79.2833C316.741 80.4031 317.861 80.3471 318.477 80.4031C321.725 80.6271 322.676 82.5868 322.676 85.4983C322.62 95.9127 322.62 106.383 322.508 116.797C322.508 118.645 322.228 120.493 321.893 122.34C321.445 125.252 319.765 127.436 317.581 129.283C316.965 129.787 315.398 129.731 316.125 131.131C316.909 132.587 317.917 131.467 318.701 131.075C324.636 127.94 327.716 122.844 328.108 116.293C328.723 106.439 328.219 96.5845 328.387 86.6741C328.443 82.9787 327.996 81.075 332.811 80.4031C333.371 80.3471 333.987 80.1792 333.931 79.3953C333.875 78.4435 333.091 78.6114 332.475 78.6114C330.067 78.5554 327.772 78.5554 325.42 78.5554ZM399.16 99.944C399.16 95.4087 399.16 90.8175 399.16 86.2822C399.16 81.9149 399.552 81.467 403.807 80.4031C404.367 80.2352 405.263 80.4591 405.263 79.5073C405.263 78.2755 404.255 78.6114 403.639 78.6114C398.992 78.5554 394.345 78.5554 389.698 78.6114C389.026 78.6114 388.018 78.3315 388.018 79.5073C388.018 80.4031 388.914 80.2912 389.474 80.4591C393.393 81.523 393.617 81.7469 393.673 85.7223C393.673 95.2968 393.673 104.871 393.673 114.502C393.673 118.421 393.393 118.645 389.53 119.317C388.914 119.429 388.074 119.317 388.074 120.213C388.018 121.389 389.082 121.109 389.698 121.109C394.233 121.165 398.824 121.165 403.359 121.109C404.031 121.109 405.263 121.613 405.263 120.213C405.263 119.149 404.199 119.429 403.527 119.317C399.944 118.757 399.272 118.141 399.272 114.446C399.104 109.574 399.16 104.759 399.16 99.944ZM80.7951 124.692C78.1635 129.059 75.3079 132.755 75.5319 137.626C75.7559 142.161 80.0112 144.457 83.9306 142.273C86.5621 140.817 87.626 137.01 86.2822 133.651C84.9944 130.515 82.8108 127.94 80.7951 124.692ZM283.091 136.842C282.027 135.442 280.907 134.211 280.067 132.867C279.451 131.915 278.667 131.971 277.884 132.139C277.044 132.363 277.324 133.203 277.324 133.763C277.268 135.834 277.324 137.85 277.324 139.922C277.324 140.817 277.268 141.601 278.555 141.601C279.843 141.601 279.451 140.705 279.507 140.034C279.619 138.914 279.283 137.738 279.843 136.45C281.131 138.018 282.307 139.362 283.259 140.817C283.875 141.769 284.658 141.657 285.442 141.545C286.338 141.377 286.058 140.538 286.058 139.978C286.114 137.85 286.058 135.722 286.114 133.539C286.114 132.755 286.058 132.083 284.994 132.083C283.763 132.027 283.707 132.699 283.651 133.651C283.483 134.602 283.819 135.666 283.091 136.842ZM216.741 136.898C216.741 133.987 214.782 132.083 211.87 132.083C208.959 132.083 206.663 134.267 206.719 137.066C206.775 139.698 209.071 141.769 211.87 141.713C214.838 141.657 216.741 139.754 216.741 136.898ZM272.844 137.066C272.9 133.931 270.997 132.027 267.861 132.027C265.006 132.027 263.046 134.043 263.046 136.954C263.046 139.698 264.95 141.601 267.749 141.657C270.829 141.769 272.788 139.922 272.844 137.066ZM115.845 141.321C116.685 141.769 117.749 141.881 118.197 141.321C119.989 139.306 121.501 139.642 123.236 141.321C123.74 141.825 124.748 141.769 125.308 141.377C125.812 140.985 125.196 140.426 125.028 139.922C124.188 137.794 123.348 135.61 122.62 133.427C122.284 132.419 121.725 131.971 120.605 131.971C119.653 132.027 119.093 132.307 118.757 133.203C117.861 136.002 116.853 138.634 115.845 141.321ZM158.455 141.433C159.406 141.713 160.19 141.937 160.638 141.433C162.486 139.53 164.166 139.53 166.013 141.433C166.405 141.881 167.301 141.825 167.861 141.433C168.421 141.041 167.917 140.426 167.749 139.922C166.965 137.85 166.125 135.778 165.342 133.707C164.95 132.699 164.558 131.915 163.214 132.027C161.982 132.083 161.646 132.811 161.31 133.707C160.302 136.226 159.406 138.746 158.455 141.433ZM240.09 135.722C240.09 135.162 240.09 134.602 240.09 134.043C240.034 133.147 240.37 132.027 238.858 132.139C237.402 132.195 238.018 133.315 237.962 133.987C237.85 135.162 237.962 136.394 237.906 137.626C237.85 139.026 237.122 139.866 235.61 139.922C234.155 139.922 233.763 138.802 233.651 137.682C233.539 136.226 233.595 134.714 233.595 133.203C233.595 132.307 233.147 132.139 232.363 132.139C231.579 132.139 231.131 132.363 231.187 133.259C231.243 134.994 231.075 136.786 231.299 138.522C231.523 140.37 232.867 141.489 234.658 141.713C237.738 141.993 240.482 141.265 240.09 135.722ZM293.673 141.713C296.025 141.657 297.536 141.153 297.928 139.138C298.32 137.066 296.864 136.394 295.241 135.946C294.793 135.834 294.345 135.666 293.953 135.498C293.505 135.33 292.945 135.218 293.057 134.658C293.225 134.043 293.785 133.931 294.401 134.099C294.961 134.267 295.521 134.378 295.969 134.658C296.697 135.05 296.976 134.658 297.256 134.155C297.592 133.539 297.368 133.091 296.808 132.811C295.353 131.971 293.785 131.803 292.273 132.531C291.209 133.035 290.314 133.875 290.426 135.33C290.594 137.234 292.105 137.458 293.449 138.074C294.177 138.41 295.857 137.85 295.465 139.25C295.073 140.649 293.673 139.978 292.609 139.698C292.329 139.642 292.105 139.474 291.881 139.306C291.209 138.69 290.929 139.362 290.594 139.754C289.978 140.37 290.538 140.649 290.985 140.985C291.993 141.545 293.057 141.769 293.673 141.713ZM199.16 141.713C200.896 141.657 202.52 141.265 202.856 139.194C203.247 137.122 201.904 136.394 200.224 136.002C199.776 135.89 199.384 135.666 198.936 135.554C198.432 135.386 197.648 135.442 197.816 134.658C197.984 133.875 198.768 133.931 199.44 134.099C199.888 134.211 200.392 134.267 200.784 134.49C201.568 135.05 201.96 134.546 202.296 133.987C202.856 133.035 202.016 132.923 201.512 132.643C199.944 131.859 198.32 131.747 196.753 132.699C195.689 133.315 195.185 134.323 195.409 135.498C195.745 137.458 197.424 137.682 198.936 138.13C199.608 138.354 200.784 138.186 200.672 139.082C200.448 140.258 199.216 139.922 198.32 139.866C197.872 139.81 197.424 139.586 197.088 139.306C196.361 138.69 196.025 139.082 195.633 139.698C194.961 140.649 195.913 140.761 196.305 141.041C197.088 141.657 198.096 141.713 199.16 141.713ZM129.563 136.842C129.563 138.074 129.563 139.25 129.563 140.482C129.563 141.265 129.899 141.657 130.739 141.657C131.467 141.657 132.139 141.545 132.027 140.649C131.747 138.578 132.699 138.074 134.546 138.298C136.45 138.522 137.29 137.178 137.458 135.666C137.682 133.931 136.73 132.643 134.938 132.195C130.739 131.131 129.563 132.083 129.563 136.338C129.563 136.506 129.563 136.674 129.563 136.842ZM108.455 141.713C109.015 141.657 109.574 141.769 109.91 141.545C110.806 140.985 112.486 140.705 112.094 139.474C111.478 137.738 110.414 139.194 109.518 139.586C108.287 140.146 107.223 139.866 106.439 138.634C105.655 137.402 105.655 136.114 106.551 134.994C107.559 133.763 108.847 133.819 110.022 134.658C110.918 135.274 111.702 135.162 112.15 134.434C112.598 133.651 111.702 133.147 111.086 132.755C109.127 131.523 107.223 131.691 105.431 133.091C103.527 134.49 103.08 136.45 103.807 138.522C104.479 140.594 106.271 141.657 108.455 141.713ZM246.976 137.458C246.976 138.13 246.865 138.634 246.976 139.026C247.256 139.922 246.137 141.489 248.096 141.601C250.168 141.713 249.16 140.09 249.328 139.194C249.496 138.466 249.328 137.682 249.384 136.954C249.384 135.666 248.88 133.987 251.232 134.211C251.96 134.267 251.904 133.483 251.904 132.979C251.904 132.419 251.624 132.139 251.064 132.139C249.104 132.139 247.144 132.139 245.185 132.139C244.569 132.139 244.457 132.587 244.457 133.091C244.457 133.539 244.457 134.267 244.961 134.211C248.152 134.043 246.585 136.394 246.976 137.458ZM150.784 137.514C150.784 138.466 150.784 139.194 150.784 139.978C150.784 140.817 150.672 141.657 152.016 141.657C153.359 141.657 153.191 140.761 153.191 139.978C153.191 139.026 153.136 138.13 153.191 137.178C153.247 135.834 152.52 133.987 155.095 134.267C155.879 134.323 155.655 133.483 155.711 132.979C155.767 132.419 155.487 132.139 154.871 132.139C153.024 132.139 151.176 132.139 149.272 132.139C148.6 132.139 148.264 132.419 148.264 133.147C148.264 133.595 148.264 134.267 148.824 134.267C152.016 134.099 150.336 136.506 150.784 137.514ZM174.468 135.89C174.468 135.33 174.524 134.77 174.468 134.211C174.356 133.315 174.972 132.027 173.18 132.083C171.613 132.139 172.116 133.315 172.06 134.099C172.004 136.058 172.06 138.018 172.004 139.922C171.948 141.041 172.228 141.657 173.516 141.601C174.692 141.545 175.924 141.545 177.156 141.601C177.828 141.601 178.219 141.433 178.164 140.705C178.108 140.202 177.94 139.698 177.38 139.81C173.74 140.482 174.468 137.906 174.468 135.89ZM224.076 141.601C225.084 141.601 225.7 141.601 226.372 141.601C227.044 141.601 227.38 141.321 227.324 140.594C227.324 140.034 227.044 139.698 226.484 139.81C222.676 140.538 223.516 137.85 223.46 135.778C223.46 134.938 223.46 134.099 223.46 133.259C223.46 132.531 223.348 132.027 222.396 132.083C221.557 132.139 221.277 132.531 221.277 133.315C221.277 135.05 221.445 136.842 221.221 138.578C220.997 141.097 221.725 142.273 224.076 141.601ZM258.623 136.842C258.623 135.61 258.623 134.434 258.623 133.203C258.623 132.363 258.231 132.083 257.447 132.083C256.607 132.083 256.327 132.475 256.327 133.259C256.327 135.666 256.383 138.13 256.327 140.538C256.327 141.377 256.663 141.657 257.503 141.657C258.287 141.657 258.679 141.321 258.679 140.482C258.567 139.306 258.623 138.074 258.623 136.842ZM143.953 136.842C143.953 135.61 143.953 134.434 143.953 133.203C143.953 132.419 143.729 132.027 142.833 132.027C141.993 132.027 141.657 132.419 141.657 133.203C141.657 135.61 141.657 138.018 141.657 140.426C141.657 141.265 141.937 141.545 142.777 141.545C143.617 141.545 143.897 141.153 143.897 140.37C143.953 139.25 143.953 138.074 143.953 136.842Z" fill="#FDFDFD"/>
<path d="M183.819 111.646C185.946 108.343 187.122 104.927 188.634 101.736C191.937 94.7929 195.185 87.794 198.432 80.7951C199.16 79.1714 200.112 78.3875 202.016 78.5555C204.423 78.7794 206.887 78.5554 209.294 78.6114C209.966 78.6114 210.75 78.6114 210.694 79.5633C210.694 80.2912 209.966 80.4032 209.462 80.4591C204.311 81.131 204.423 83.2587 204.479 87.2341C204.535 95.6887 204.703 104.199 204.871 112.654C204.983 117.749 205.095 117.861 210.078 119.429C210.526 119.597 211.03 119.709 211.03 120.269C211.086 120.997 210.526 121.221 209.91 121.221C204.983 121.221 200 121.221 195.073 121.221C194.513 121.221 193.897 121.109 193.841 120.381C193.785 119.653 194.401 119.541 194.961 119.429C199.272 118.253 199.272 118.253 199.272 113.83C199.272 104.535 199.272 95.1848 199.272 85.2744C197.032 88.4659 195.913 91.7134 194.569 94.6809C190.761 102.856 187.178 111.142 183.539 119.373C183.203 120.101 183.203 121.109 182.027 121.109C180.739 121.109 180.683 120.045 180.347 119.205C176.26 109.239 172.172 99.2161 168.085 89.2497C167.749 88.4099 167.301 87.57 166.405 86.7301C166.293 88.1299 166.125 89.4737 166.069 90.8735C165.733 98.7122 165.342 106.495 165.118 114.334C165.006 118.197 165.677 118.757 169.485 119.429C170.157 119.541 171.221 119.261 171.221 120.325C171.221 121.613 170.045 121.221 169.317 121.277C165.51 121.333 161.702 121.333 157.839 121.277C157.055 121.277 155.935 121.557 155.935 120.269C155.935 119.261 156.999 119.429 157.671 119.373C160.582 119.149 161.59 117.133 161.87 114.614C162.262 111.03 162.486 107.391 162.71 103.751C163.158 97.9284 163.662 92.0493 163.998 86.2262C164.278 81.8589 163.942 81.579 159.686 80.5711C158.959 80.4032 157.671 80.6271 157.839 79.3953C157.951 78.2195 159.127 78.6674 159.91 78.6114C161.478 78.5554 163.102 78.5554 164.67 78.6114C169.205 78.6114 169.093 78.6674 170.941 82.9787C174.692 91.7133 178.499 100.392 182.307 109.071C182.699 109.798 183.203 110.526 183.819 111.646Z" fill="#A6B03B"/>
<path d="M302.688 110.694C303.359 110.078 303.135 109.294 303.135 108.567C303.079 101.12 303.079 93.673 302.967 86.2262C302.911 82.0828 302.184 81.299 298.096 80.4591C297.312 80.2911 295.801 80.5711 295.969 79.2833C296.137 78.0515 297.48 78.6114 298.32 78.5554C302.24 78.4994 306.159 78.5554 310.078 78.5554C310.694 78.5554 311.534 78.3314 311.702 79.1713C311.926 80.2351 310.974 80.3471 310.246 80.4591C306.887 80.795 306.103 82.9787 306.047 85.9462C306.047 97.0324 305.935 108.119 305.823 119.205C305.823 120.157 306.327 121.389 304.927 121.78C303.751 122.116 303.079 121.221 302.408 120.381C294.009 110.078 285.61 99.832 277.156 89.5296C276.708 88.9697 276.372 88.2419 275.364 88.1859C275.308 88.6338 275.14 89.0817 275.14 89.4737C275.252 97.6484 275.252 105.879 275.476 114.054C275.532 117.749 276.428 118.589 280.011 119.205C280.683 119.317 281.747 119.093 281.747 120.157C281.747 121.445 280.571 121.053 279.843 121.053C275.924 121.109 272.004 121.109 268.085 121.053C267.413 121.053 266.405 121.333 266.293 120.269C266.181 119.205 267.189 119.261 267.917 119.205C270.829 118.869 272.004 117.189 272.228 114.334C272.9 105.095 272.564 95.9126 272.564 86.6741C272.564 83.0347 271.053 81.4669 267.077 80.4031C266.405 80.2351 265.342 80.3471 265.342 79.3393C265.342 78.0515 266.517 78.4994 267.301 78.3874C267.469 78.3874 267.693 78.3874 267.861 78.3874C272.844 77.5476 276.204 79.3953 279.395 83.4826C286.17 92.2172 293.561 100.448 300.672 108.903C301.232 109.686 301.68 110.526 302.688 110.694Z" fill="#A6B03B"/>
<path d="M216.461 100.168C216.797 86.5622 226.148 77.4916 239.362 77.8836C251.288 78.2195 260.134 87.794 259.854 100.112C259.574 113.438 250.336 122.452 237.346 122.172C225.364 121.893 216.181 112.15 216.461 100.168ZM253.303 101.736C253.359 96.4726 252.464 91.7693 250 87.402C245.185 78.9474 233.203 77.0437 226.988 85.0504C224.468 88.2979 223.348 91.9933 223.068 95.9127C222.508 103.303 223.964 110.134 229.171 115.845C234.546 121.669 247.256 121.781 251.064 112.542C252.632 108.847 253.359 105.207 253.303 101.736Z" fill="#A6B03B"/>
<path d="M472.9 121.109C468.141 121.109 463.382 121.109 458.623 121.109C458.007 121.109 456.887 121.501 456.887 120.325C456.887 119.261 457.895 119.485 458.567 119.373C462.934 118.757 463.438 118.365 463.438 113.942C463.494 104.703 463.494 95.4647 463.438 86.2822C463.438 81.9709 463.158 81.6909 459.127 80.4031C458.511 80.1792 457.783 80.1232 457.951 79.2273C458.119 78.4434 458.791 78.6114 459.295 78.6114C468.141 78.5554 477.044 78.5554 485.89 78.5554C486.954 78.5554 487.458 78.8914 487.458 80.0112C487.514 82.4188 487.626 84.8264 487.682 87.29C487.682 87.8499 487.794 88.4658 487.01 88.5778C486.338 88.6898 485.946 88.4098 485.834 87.7379C484.547 81.5229 480.123 80.907 474.804 81.187C467.917 81.5229 468.981 80.4031 468.869 87.178C468.813 90.0896 468.925 92.9451 468.869 95.8567C468.813 97.4804 469.261 98.2083 471.053 98.0963C473.18 97.9283 475.364 98.0403 477.492 98.0963C480.067 98.1523 481.691 97.0325 482.251 94.4009C482.419 93.729 482.195 92.4412 483.539 92.6652C484.77 92.8891 484.211 94.0089 484.267 94.7368C484.323 97.9283 484.323 101.064 484.267 104.255C484.267 104.927 484.602 105.879 483.371 105.935C482.363 105.991 482.475 105.151 482.363 104.591C481.803 101.568 479.787 100.448 476.932 100.504C474.86 100.504 472.844 100.56 470.773 100.504C469.261 100.448 468.869 101.064 468.869 102.464C468.925 106.551 468.813 110.694 468.981 114.782C469.093 118.141 469.877 118.869 473.18 118.981C475.252 119.037 477.324 118.813 479.339 119.037C483.539 119.541 486.282 117.693 487.962 113.998C488.354 113.158 488.858 112.374 489.306 111.534C489.586 110.974 489.922 110.638 490.594 110.862C491.265 111.086 491.377 111.478 491.209 112.15C490.482 114.838 489.81 117.525 489.082 120.269C488.746 121.557 487.682 121.333 486.786 121.333C482.251 121.109 477.604 121.109 472.9 121.109Z" fill="#67832D"/>
<path d="M133.315 121.165C128.723 121.165 124.188 121.165 119.597 121.165C118.869 121.165 117.637 121.557 117.637 120.325C117.637 119.093 118.869 119.485 119.597 119.373C123.18 118.925 123.964 118.197 123.964 114.558C124.02 105.039 123.964 95.5767 124.02 86.0582C124.02 83.0347 123.292 80.6831 119.709 80.4032C119.149 80.3472 118.533 80.1792 118.589 79.4513C118.645 78.5554 119.429 78.5554 120.045 78.5554C128.891 78.5554 137.738 78.5554 146.585 78.4995C147.48 78.4995 147.984 78.8354 148.04 79.7872C148.152 82.3068 148.264 84.8264 148.376 87.346C148.376 87.794 148.376 88.2979 147.816 88.4659C147.144 88.6338 146.753 88.3539 146.529 87.738C146.473 87.626 146.473 87.57 146.417 87.458C145.129 81.299 140.706 80.9071 135.554 81.131C129.059 81.467 129.395 80.0112 129.451 87.29C129.451 90.0896 129.563 92.8891 129.395 95.6887C129.283 97.5924 130.067 98.1523 131.859 98.0403C133.987 97.9283 136.17 97.9843 138.298 97.9843C140.705 97.9283 142.385 96.9765 142.889 94.4009C143.057 93.673 142.945 92.4412 144.121 92.5532C145.577 92.7212 144.961 94.009 144.961 94.7928C145.017 97.7604 145.017 100.728 144.961 103.751C144.961 104.479 145.465 105.599 144.121 105.767C143.113 105.879 142.945 104.983 142.833 104.255C142.385 101.4 140.426 100.504 137.85 100.336C129.339 99.7201 129.339 99.7201 129.339 108.287C129.339 110.694 129.395 113.158 129.563 115.51C129.731 117.637 130.907 118.869 133.259 118.757C135.33 118.701 137.402 118.533 139.418 118.813C144.177 119.485 146.976 117.189 148.88 113.158C149.216 112.486 149.608 111.87 149.944 111.198C150.168 110.75 150.504 110.47 151.064 110.582C151.792 110.75 151.904 111.31 151.736 111.87C151.008 114.67 150.336 117.469 149.552 120.213C149.216 121.389 148.264 121.053 147.48 121.053C142.833 121.165 138.074 121.165 133.315 121.165Z" fill="#A6B03B"/>
<path d="M344.457 95.2408C344.457 91.7693 344.401 88.3539 344.457 84.8824C344.513 82.1389 343.337 80.7391 340.649 80.4031C339.922 80.2912 338.69 80.5151 338.914 79.2273C339.082 78.1635 340.09 78.5554 340.761 78.5554C345.129 78.4994 349.552 78.5554 353.919 78.5554C354.647 78.5554 355.655 78.2755 355.823 79.1713C356.047 80.4591 354.759 80.2352 354.031 80.2912C351.176 80.6271 350 82.2508 350 84.9944C350 91.8813 349.664 98.8242 350.112 105.655C350.896 118.533 361.702 120.717 368.981 117.301C371.781 116.013 373.404 113.662 374.076 110.694C376.092 101.736 375.42 92.7212 374.636 83.7626C374.412 81.131 372.172 80.7951 370.157 80.2912C369.429 80.1232 368.141 80.5151 368.253 79.2273C368.365 77.9955 369.597 78.4994 370.325 78.4994C374.132 78.4435 377.996 78.4435 381.803 78.4994C382.531 78.4994 383.707 78.0515 383.819 79.2833C383.931 80.3472 382.811 80.1232 382.195 80.3471C378.835 81.243 378.107 82.1949 377.94 85.8903C377.604 93.449 378.275 101.008 377.436 108.511C376.54 116.461 371.221 121.557 363.27 121.948C356.887 122.284 350.896 121.445 347.144 115.342C345.185 112.15 344.625 108.567 344.513 104.927C344.457 101.68 344.513 98.4323 344.513 95.1288C344.457 95.2408 344.457 95.2408 344.457 95.2408Z" fill="#67832D"/>
<path d="M436.674 77.8275C440.482 77.7715 443.841 78.2755 447.256 78.7794C448.488 78.9474 448.992 79.3953 449.048 80.6831C449.16 82.7547 449.44 84.7704 449.608 86.7861C449.664 87.626 450.504 88.8018 449.16 89.1937C447.816 89.5857 447.816 88.1859 447.536 87.402C446.361 83.8746 444.009 81.4669 440.426 80.5711C431.075 78.2195 421.557 81.5229 419.093 92.4972C417.357 100.28 418.085 107.615 422.956 114.278C427.772 120.829 442.833 123.068 447.816 112.598C448.04 112.094 448.432 111.702 448.712 111.198C448.992 110.694 449.272 110.19 450 110.47C450.84 110.806 450.728 111.422 450.504 112.094C450.28 112.71 449.888 113.27 449.832 113.942C449.272 119.429 446.025 121.445 440.761 121.892C432.195 122.564 424.076 122.06 417.637 115.509C411.31 109.015 409.966 101.064 412.822 92.7211C415.51 84.7704 421.557 80.2351 429.675 78.3874C432.139 77.8835 434.546 77.7156 436.674 77.8275Z" fill="#67832D"/>
<path d="M95.1848 121.165C90.8175 121.165 86.4502 121.165 82.0269 121.165C81.299 121.165 80.0672 121.501 80.1232 120.157C80.1792 119.149 81.243 119.429 81.9149 119.317C85.7783 118.757 86.3382 118.253 86.3382 114.334C86.3942 104.647 86.3382 94.9608 86.3382 85.2744C86.3382 82.4188 85.3863 80.5711 82.2508 80.4592C81.5789 80.4032 80.6271 80.3472 80.6831 79.2833C80.7391 78.3315 81.6349 78.4995 82.1948 78.4995C86.8421 78.4995 91.4894 78.4995 96.1926 78.5555C96.8085 78.5555 97.6484 78.3315 97.8163 79.2274C97.9843 80.3472 96.9765 80.2352 96.3046 80.4592C92.4412 81.411 92.1613 81.747 92.1053 85.7223C92.0493 95.2408 92.0493 104.703 92.1053 114.222C92.1053 118.309 92.6652 118.757 96.9205 118.813C98.0403 118.813 99.1601 118.645 100.28 118.869C105.599 119.765 108.399 116.797 110.414 112.486C110.694 111.926 110.974 111.31 111.31 110.75C111.702 110.19 112.262 110.19 112.822 110.47C113.382 110.75 113.214 111.254 113.102 111.702C112.318 114.446 111.478 117.245 110.694 119.989C110.302 121.333 109.239 121.221 108.175 121.221C103.919 121.165 99.5521 121.165 95.1848 121.165Z" fill="#A6B03B"/>
<path d="M325.42 78.5554C327.772 78.5554 330.067 78.5554 332.419 78.5554C333.035 78.5554 333.819 78.3875 333.875 79.3393C333.931 80.0672 333.315 80.2352 332.755 80.3471C327.996 81.019 328.387 82.9227 328.331 86.6181C328.164 96.4726 328.667 106.383 328.052 116.237C327.66 122.844 324.58 127.884 318.645 131.019C317.861 131.411 316.797 132.531 316.069 131.075C315.342 129.675 316.909 129.731 317.525 129.227C319.709 127.38 321.389 125.196 321.836 122.284C322.116 120.437 322.396 118.589 322.452 116.741C322.564 106.327 322.508 95.9126 322.62 85.4423C322.62 82.5308 321.669 80.5711 318.421 80.3471C317.805 80.2912 316.685 80.4031 316.853 79.2273C317.021 78.1075 318.029 78.4994 318.645 78.4994C320.941 78.4994 323.18 78.5554 325.42 78.5554Z" fill="#67832D"/>
<path d="M399.16 99.944C399.16 104.759 399.104 109.63 399.16 114.446C399.216 118.085 399.832 118.757 403.415 119.317C404.087 119.429 405.151 119.149 405.151 120.213C405.207 121.613 403.975 121.109 403.247 121.109C398.712 121.165 394.121 121.165 389.586 121.109C388.914 121.109 387.906 121.445 387.962 120.213C387.962 119.317 388.802 119.429 389.418 119.317C393.281 118.645 393.561 118.421 393.561 114.502C393.617 104.927 393.617 95.3528 393.561 85.7223C393.561 81.7469 393.337 81.523 389.362 80.4591C388.802 80.2912 387.906 80.4031 387.906 79.5073C387.906 78.3315 388.914 78.6114 389.586 78.6114C394.233 78.6114 398.88 78.6114 403.527 78.6114C404.199 78.6114 405.207 78.2755 405.151 79.5073C405.151 80.4591 404.255 80.2912 403.695 80.4031C399.44 81.467 399.104 81.9149 399.048 86.2822C399.16 90.8175 399.16 95.3527 399.16 99.944Z" fill="#67832D"/>
<path d="M9.51847 69.4289C10.3583 49.3281 21.1646 29.7313 42.4972 16.4054C56.7189 7.5588 72.5084 4.75925 88.9698 7.55881C115.398 12.0381 136.786 31.131 143.785 57.5588C144.793 61.2542 143.729 63.6058 140.929 64.3337C138.354 65.0056 136.394 63.8298 135.554 60.9183C133.539 53.6954 130.795 46.8085 126.26 40.7615C112.15 22.0045 93.3931 13.2139 70.1008 16.2374C46.4166 19.2609 29.6752 32.6428 21.8925 55.0392C14.3897 76.5398 18.3651 96.7525 33.7626 114.166C43.0571 124.636 54.8712 130.739 68.701 132.923C72.0605 133.483 73.8522 135.61 73.3483 138.354C72.9003 140.817 70.3248 142.217 67.1893 141.713C48.2083 138.634 33.0347 129.227 21.8925 113.718C14.0537 102.744 9.40649 89.8656 9.51847 69.4289Z" fill="#E8CE11"/>
<path d="M38.2979 104.255C38.1299 99.6081 40.7055 96.5286 44.3449 94.2889C51.7917 89.6977 59.2945 85.2744 66.7973 80.7951C68.533 79.7873 70.2128 79.2833 72.0045 80.5711C73.6282 81.7469 73.5162 83.4827 73.1803 85.1624C71.5565 94.2329 69.9888 103.303 68.2531 112.374C67.1892 117.973 60.8623 122.34 55.4311 120.605C49.4401 118.701 44.4569 114.95 40.1456 110.358C38.5778 108.567 38.4099 106.383 38.2979 104.255Z" fill="#FCE505"/>
<path d="M51.5118 31.299C56.8869 31.299 61.0302 34.2105 62.71 38.5219C65.9015 46.7525 69.1489 54.9832 72.3964 63.1579C73.1243 65.0056 73.5722 66.6294 71.8925 68.2531C70.3247 69.8209 68.701 69.2609 67.0213 68.701C59.0146 65.9015 51.0638 63.1019 43.0011 60.3584C33.6506 57.2229 31.299 47.8724 38.0739 40.8175C40.2576 38.5219 42.4972 36.3382 44.7368 34.0986C46.8085 32.0829 49.3281 31.411 51.5118 31.299Z" fill="#FCE505"/>
<path d="M24.6361 74.916C23.9082 70.4367 24.972 65.7335 29.9552 62.766C32.6988 61.0862 35.6663 60.5823 38.8018 61.7581C47.5364 65.0056 56.215 68.2531 64.9496 71.5565C66.6293 72.1725 68.1411 73.1803 68.2531 75.252C68.4211 77.3236 66.9653 78.1075 65.4535 78.9474C57.2788 83.3147 49.2161 87.9059 40.8735 92.0493C34.2105 95.3527 26.4278 90.9854 25.196 83.6506C24.804 81.019 24.804 78.4434 24.6361 74.916Z" fill="#FCE505"/>
<path d="M77.8835 22.3404C80.6831 22.6764 84.3225 22.9003 87.9059 23.4602C95.6887 24.748 99.5521 33.0347 95.5767 39.8656C91.0414 47.6484 86.3942 55.3191 81.8029 63.0459C80.8511 64.6136 79.8432 66.0694 77.7156 65.8454C75.6439 65.6215 74.86 64.0537 74.3001 62.262C71.3886 53.5274 68.3091 44.9048 65.5655 36.1142C63.2699 28.8914 69.0929 22.0605 77.8835 22.3404Z" fill="#FCE505"/>
<path d="M125.532 54.1994C125.42 59.4065 121.613 63.9978 116.405 65.0056C107.279 66.7413 98.0963 68.3651 88.9698 70.1008C87.29 70.4368 86.0582 69.8209 85.1064 68.5331C84.1545 67.3013 84.2105 66.0135 85.0504 64.6137C89.8096 56.551 94.5689 48.4323 99.2161 40.3136C102.856 33.9306 112.934 33.0907 117.469 39.1938C119.653 42.1053 121.781 45.0168 123.74 48.0403C124.916 49.944 125.588 52.0157 125.532 54.1994Z" fill="#FCE505"/>
<path d="M80.7951 124.692C82.7548 127.94 84.9944 130.515 86.2262 133.595C87.57 136.954 86.5062 140.762 83.8746 142.217C79.9552 144.457 75.6999 142.105 75.4759 137.57C75.3639 132.755 78.1635 129.059 80.7951 124.692Z" fill="#FCE505"/>
<path d="M283.091 136.842C283.819 135.61 283.483 134.602 283.539 133.651C283.595 132.699 283.651 132.027 284.882 132.083C285.946 132.139 286.002 132.755 286.002 133.539C286.002 135.666 286.002 137.794 285.946 139.978C285.946 140.593 286.226 141.433 285.33 141.545C284.546 141.657 283.763 141.769 283.147 140.817C282.195 139.362 281.019 138.074 279.731 136.45C279.171 137.738 279.507 138.914 279.395 140.034C279.339 140.705 279.731 141.601 278.443 141.601C277.156 141.601 277.212 140.817 277.212 139.922C277.212 137.85 277.212 135.834 277.212 133.763C277.212 133.147 276.932 132.307 277.772 132.139C278.555 131.971 279.339 131.915 279.955 132.867C280.907 134.211 281.971 135.442 283.091 136.842Z" fill="#121212"/>
<path d="M216.741 136.898C216.741 139.81 214.838 141.657 211.87 141.713C209.071 141.713 206.775 139.698 206.719 137.066C206.663 134.267 208.959 132.027 211.87 132.083C214.782 132.083 216.741 133.987 216.741 136.898ZM212.038 139.866C213.55 139.586 214.446 138.522 214.502 136.898C214.502 135.162 213.438 134.155 211.758 134.155C209.966 134.155 209.071 135.442 209.127 137.066C209.183 138.578 209.966 139.866 212.038 139.866Z" fill="#121212"/>
<path d="M272.844 137.066C272.788 139.922 270.829 141.769 267.805 141.713C265.006 141.657 263.102 139.754 263.102 137.01C263.102 134.099 265.006 132.083 267.917 132.083C270.941 132.027 272.844 133.931 272.844 137.066ZM268.029 134.099C266.517 134.267 265.398 134.882 265.342 136.618C265.286 138.41 265.845 139.81 267.861 139.866C269.709 139.922 270.493 138.634 270.661 137.066C270.773 135.33 269.709 134.379 268.029 134.099Z" fill="#121212"/>
<path d="M115.845 141.321C116.853 138.634 117.861 136.002 118.813 133.315C119.149 132.363 119.709 132.083 120.661 132.083C121.781 132.027 122.34 132.475 122.676 133.539C123.404 135.722 124.244 137.85 125.084 140.034C125.252 140.537 125.868 141.097 125.364 141.489C124.804 141.937 123.796 141.937 123.292 141.433C121.557 139.698 120.045 139.418 118.253 141.433C117.749 141.937 116.685 141.825 115.845 141.321ZM120.661 134.714C120.269 136.114 119.429 137.01 119.989 138.13C120.101 138.298 121.109 138.354 121.277 138.13C122.004 137.01 121.109 136.114 120.661 134.714Z" fill="#121212"/>
<path d="M158.455 141.433C159.406 138.802 160.302 136.282 161.254 133.763C161.59 132.867 161.926 132.139 163.158 132.083C164.502 132.027 164.894 132.755 165.286 133.763C166.069 135.834 166.909 137.906 167.693 139.978C167.861 140.482 168.365 141.041 167.805 141.489C167.301 141.881 166.405 141.881 165.957 141.489C164.11 139.586 162.43 139.53 160.582 141.489C160.19 141.881 159.406 141.657 158.455 141.433ZM163.494 134.378C161.814 138.242 161.87 138.298 164.558 138.018C164.222 137.01 163.942 136.002 163.494 134.378Z" fill="#121212"/>
<path d="M240.09 135.722C240.538 141.265 237.738 141.993 234.714 141.657C232.923 141.433 231.579 140.37 231.355 138.466C231.131 136.73 231.299 134.938 231.243 133.203C231.243 132.363 231.635 132.083 232.419 132.083C233.203 132.083 233.651 132.251 233.651 133.147C233.595 134.658 233.595 136.114 233.707 137.626C233.819 138.802 234.211 139.866 235.666 139.866C237.122 139.866 237.85 138.97 237.962 137.57C238.018 136.338 237.906 135.162 238.018 133.931C238.074 133.259 237.458 132.139 238.914 132.083C240.426 132.027 240.09 133.147 240.146 133.987C240.09 134.602 240.09 135.162 240.09 135.722Z" fill="#121212"/>
<path d="M293.673 141.713C293.057 141.769 291.993 141.545 291.041 140.873C290.593 140.537 290.09 140.258 290.649 139.642C290.985 139.306 291.209 138.578 291.937 139.194C292.161 139.362 292.385 139.53 292.665 139.586C293.673 139.866 295.129 140.537 295.521 139.138C295.913 137.738 294.177 138.298 293.505 137.962C292.161 137.346 290.649 137.122 290.482 135.218C290.37 133.763 291.209 132.923 292.329 132.419C293.841 131.691 295.409 131.915 296.865 132.699C297.424 133.035 297.648 133.427 297.312 134.043C297.032 134.546 296.697 134.938 296.025 134.546C295.521 134.266 294.961 134.155 294.457 133.987C293.897 133.819 293.281 133.931 293.113 134.546C292.945 135.162 293.561 135.274 294.009 135.386C294.457 135.554 294.905 135.722 295.297 135.834C296.921 136.282 298.376 136.954 297.984 139.026C297.536 141.153 296.025 141.657 293.673 141.713Z" fill="#121212"/>
<path d="M199.16 141.713C198.096 141.769 197.088 141.657 196.249 141.041C195.857 140.705 194.905 140.649 195.577 139.698C196.025 139.138 196.305 138.69 197.032 139.306C197.368 139.586 197.872 139.81 198.264 139.866C199.16 139.922 200.392 140.314 200.616 139.082C200.784 138.13 199.552 138.354 198.88 138.13C197.424 137.682 195.689 137.458 195.353 135.498C195.185 134.267 195.633 133.315 196.697 132.699C198.264 131.747 199.832 131.859 201.456 132.643C201.96 132.923 202.856 133.035 202.24 133.987C201.848 134.602 201.512 135.05 200.728 134.49C200.336 134.267 199.832 134.211 199.384 134.099C198.712 133.931 197.984 133.875 197.76 134.658C197.592 135.442 198.376 135.386 198.88 135.554C199.328 135.666 199.72 135.89 200.168 136.002C201.848 136.45 203.136 137.178 202.8 139.194C202.52 141.265 200.952 141.657 199.16 141.713Z" fill="#121212"/>
<path d="M129.563 136.842C129.563 136.674 129.563 136.45 129.563 136.282C129.563 132.027 130.739 131.075 134.938 132.139C136.674 132.587 137.682 133.875 137.458 135.61C137.29 137.122 136.45 138.522 134.546 138.242C132.699 138.018 131.747 138.522 132.027 140.594C132.139 141.489 131.467 141.601 130.739 141.601C129.899 141.601 129.563 141.265 129.563 140.426C129.563 139.25 129.563 138.074 129.563 136.842ZM132.027 135.442C131.971 136.562 132.699 136.506 133.483 136.506C134.434 136.506 135.218 136.17 135.106 135.162C134.994 134.267 134.099 134.323 133.371 134.267C132.531 134.211 131.915 134.379 132.027 135.442Z" fill="#121212"/>
<path d="M108.455 141.713C106.271 141.657 104.535 140.594 103.807 138.522C103.08 136.45 103.527 134.491 105.431 133.091C107.223 131.747 109.127 131.523 111.086 132.755C111.702 133.147 112.598 133.595 112.15 134.435C111.758 135.218 110.918 135.274 110.022 134.658C108.847 133.819 107.559 133.763 106.551 134.994C105.655 136.114 105.655 137.346 106.439 138.634C107.223 139.866 108.287 140.202 109.518 139.586C110.414 139.138 111.478 137.738 112.094 139.474C112.486 140.65 110.806 140.985 109.91 141.545C109.518 141.769 108.959 141.657 108.455 141.713Z" fill="#121212"/>
<path d="M246.976 137.458C246.529 136.394 248.152 133.987 245.017 134.211C244.457 134.267 244.513 133.539 244.513 133.091C244.513 132.587 244.625 132.139 245.241 132.139C247.2 132.139 249.16 132.139 251.12 132.139C251.68 132.139 251.96 132.419 251.96 132.979C251.96 133.539 252.016 134.267 251.288 134.211C248.936 134.043 249.44 135.666 249.44 136.954C249.44 137.682 249.552 138.466 249.384 139.194C249.216 140.09 250.224 141.713 248.152 141.601C246.193 141.489 247.256 139.922 247.032 139.026C246.92 138.634 246.976 138.13 246.976 137.458Z" fill="#121212"/>
<path d="M150.784 137.514C150.28 136.506 152.016 134.099 148.88 134.211C148.32 134.211 148.376 133.595 148.32 133.091C148.264 132.363 148.6 132.083 149.328 132.083C151.176 132.083 153.024 132.083 154.927 132.083C155.543 132.083 155.767 132.363 155.767 132.923C155.767 133.427 155.935 134.267 155.151 134.211C152.576 133.987 153.303 135.834 153.247 137.122C153.192 138.074 153.247 138.97 153.247 139.922C153.247 140.706 153.415 141.601 152.072 141.601C150.784 141.601 150.84 140.761 150.84 139.922C150.84 139.25 150.784 138.466 150.784 137.514Z" fill="#121212"/>
<path d="M174.468 135.89C174.468 137.906 173.74 140.482 177.38 139.81C177.94 139.698 178.108 140.146 178.164 140.706C178.219 141.489 177.828 141.657 177.156 141.601C175.924 141.545 174.748 141.545 173.516 141.601C172.228 141.713 171.948 141.041 172.004 139.922C172.06 137.962 172.004 136.002 172.06 134.099C172.06 133.315 171.557 132.139 173.18 132.083C174.972 132.027 174.356 133.315 174.468 134.211C174.468 134.77 174.468 135.33 174.468 135.89Z" fill="#121212"/>
<path d="M224.076 141.601C221.725 142.273 220.997 141.097 221.277 138.522C221.445 136.786 221.333 134.994 221.333 133.259C221.333 132.475 221.613 132.083 222.452 132.027C223.404 131.971 223.516 132.475 223.516 133.203C223.516 134.043 223.516 134.882 223.516 135.722C223.572 137.794 222.732 140.482 226.54 139.754C227.1 139.642 227.324 139.978 227.38 140.538C227.436 141.265 227.1 141.545 226.428 141.545C225.7 141.601 225.084 141.601 224.076 141.601Z" fill="#121212"/>
<path d="M258.623 136.842C258.623 138.074 258.623 139.25 258.623 140.482C258.623 141.321 258.287 141.601 257.447 141.657C256.607 141.657 256.271 141.377 256.271 140.538C256.327 138.13 256.271 135.666 256.271 133.259C256.271 132.475 256.551 132.083 257.391 132.083C258.175 132.083 258.623 132.363 258.567 133.203C258.567 134.435 258.623 135.666 258.623 136.842Z" fill="#121212"/>
<path d="M143.953 136.842C143.953 138.074 143.953 139.25 143.953 140.482C143.953 141.265 143.673 141.657 142.833 141.657C141.993 141.657 141.657 141.321 141.713 140.538C141.713 138.13 141.713 135.722 141.713 133.315C141.713 132.531 142.049 132.139 142.889 132.139C143.785 132.139 144.009 132.531 144.009 133.315C143.953 134.434 143.953 135.666 143.953 136.842Z" fill="#121212"/>
<path d="M253.303 101.736C253.359 105.207 252.576 108.903 251.12 112.486C247.312 121.725 234.602 121.613 229.227 115.79C223.964 110.134 222.508 103.304 223.124 95.8567C223.404 91.9373 224.524 88.2419 227.044 84.9945C233.259 76.9877 245.241 78.8914 250.056 87.3461C252.464 91.7134 253.359 96.4166 253.303 101.736Z" fill="#FDFDFD"/>
<path d="M212.038 139.866C209.966 139.81 209.183 138.578 209.071 137.01C208.959 135.386 209.854 134.099 211.702 134.099C213.438 134.099 214.502 135.106 214.446 136.842C214.502 138.578 213.55 139.642 212.038 139.866Z" fill="#FDFDFD"/>
<path d="M268.029 134.099C269.709 134.378 270.829 135.33 270.661 137.066C270.549 138.634 269.709 139.922 267.861 139.866C265.845 139.81 265.286 138.41 265.342 136.618C265.398 134.826 266.517 134.266 268.029 134.099Z" fill="#FDFDFD"/>
<path d="M120.661 134.714C121.109 136.058 122.004 136.954 121.277 138.13C121.165 138.354 120.101 138.298 119.989 138.13C119.429 137.01 120.269 136.114 120.661 134.714Z" fill="#FDFDFD"/>
<path d="M163.494 134.379C163.998 136.002 164.278 137.01 164.558 138.018C161.814 138.298 161.814 138.186 163.494 134.379Z" fill="#FDFDFD"/>
<path d="M132.027 135.442C131.859 134.379 132.475 134.267 133.371 134.267C134.099 134.323 135.05 134.211 135.106 135.162C135.218 136.17 134.434 136.506 133.483 136.506C132.755 136.506 131.971 136.562 132.027 135.442Z" fill="#FDFDFD"/>
</g>
<defs>
<clipPath id="clip0_9_71">
<rect width="500" height="156.215" fill="white"/>
</clipPath>
</defs>
</svg>
